<svg xmlns="http://www.w3.org/2000/svg" viewBox="0 0 200 200" width="200" height="200">
  <!-- White background -->
  <rect width="200" height="200" fill="white"/>
  <!-- Outer border -->
  <rect x="10" y="10" width="180" height="180" fill="none" stroke="#333" stroke-width="6"/>

  <!-- Top-left position marker -->
  <rect x="20" y="20" width="50" height="50" fill="#333"/>
  <rect x="27" y="27" width="36" height="36" fill="white"/>
  <rect x="34" y="34" width="22" height="22" fill="#333"/>

  <!-- Top-right position marker -->
  <rect x="130" y="20" width="50" height="50" fill="#333"/>
  <rect x="137" y="27" width="36" height="36" fill="white"/>
  <rect x="144" y="34" width="22" height="22" fill="#333"/>

  <!-- Bottom-left position marker -->
  <rect x="20" y="130" width="50" height="50" fill="#333"/>
  <rect x="27" y="137" width="36" height="36" fill="white"/>
  <rect x="34" y="144" width="22" height="22" fill="#333"/>

  <!-- Data modules (dummy pattern) -->
  <rect x="82" y="20" width="8" height="8" fill="#333"/>
  <rect x="98" y="20" width="8" height="8" fill="#333"/>
  <rect x="114" y="20" width="8" height="8" fill="#333"/>
  <rect x="82" y="36" width="8" height="8" fill="#333"/>
  <rect x="106" y="36" width="8" height="8" fill="#333"/>
  <rect x="82" y="52" width="8" height="8" fill="#333"/>
  <rect x="98" y="52" width="8" height="8" fill="#333"/>
  <rect x="114" y="52" width="8" height="8" fill="#333"/>

  <rect x="20" y="82" width="8" height="8" fill="#333"/>
  <rect x="36" y="82" width="8" height="8" fill="#333"/>
  <rect x="52" y="82" width="8" height="8" fill="#333"/>
  <rect x="20" y="98" width="8" height="8" fill="#333"/>
  <rect x="44" y="98" width="8" height="8" fill="#333"/>
  <rect x="20" y="114" width="8" height="8" fill="#333"/>
  <rect x="36" y="114" width="8" height="8" fill="#333"/>

  <rect x="82" y="82" width="8" height="8" fill="#333"/>
  <rect x="98" y="82" width="8" height="8" fill="#333"/>
  <rect x="114" y="82" width="8" height="8" fill="#333"/>
  <rect x="130" y="82" width="8" height="8" fill="#333"/>
  <rect x="82" y="98" width="8" height="8" fill="#333"/>
  <rect x="106" y="98" width="8" height="8" fill="#333"/>
  <rect x="122" y="98" width="8" height="8" fill="#333"/>
  <rect x="82" y="114" width="8" height="8" fill="#333"/>
  <rect x="98" y="114" width="8" height="8" fill="#333"/>
  <rect x="114" y="114" width="8" height="8" fill="#333"/>

  <rect x="130" y="98" width="8" height="8" fill="#333"/>
  <rect x="146" y="82" width="8" height="8" fill="#333"/>
  <rect x="162" y="82" width="8" height="8" fill="#333"/>
  <rect x="146" y="98" width="8" height="8" fill="#333"/>
  <rect x="162" y="114" width="8" height="8" fill="#333"/>
  <rect x="146" y="114" width="8" height="8" fill="#333"/>

  <rect x="82" y="130" width="8" height="8" fill="#333"/>
  <rect x="98" y="130" width="8" height="8" fill="#333"/>
  <rect x="114" y="130" width="8" height="8" fill="#333"/>
  <rect x="130" y="130" width="8" height="8" fill="#333"/>
  <rect x="82" y="146" width="8" height="8" fill="#333"/>
  <rect x="106" y="146" width="8" height="8" fill="#333"/>
  <rect x="130" y="146" width="8" height="8" fill="#333"/>
  <rect x="82" y="162" width="8" height="8" fill="#333"/>
  <rect x="98" y="162" width="8" height="8" fill="#333"/>
  <rect x="114" y="162" width="8" height="8" fill="#333"/>

  <!-- Instagram icon in center -->
  <rect x="88" y="88" width="24" height="24" rx="5" fill="none" stroke="#E1306C" stroke-width="2.5"/>
  <circle cx="100" cy="100" r="5" fill="none" stroke="#E1306C" stroke-width="2"/>
  <circle cx="109" cy="91" r="1.5" fill="#E1306C"/>

  <!-- Label -->
  <text x="100" y="193" text-anchor="middle" font-family="Arial, sans-serif" font-size="9" fill="#555">Scan to follow on Instagram</text>
</svg>
